<?xml version="1.0" encoding="utf-8"?>
<!-- Generator: Adobe Illustrator 21.0.0, SVG Export Plug-In . SVG Version: 6.00 Build 0)  -->
<svg version="1.1" id="Layer_1" xmlns="http://www.w3.org/2000/svg" xmlns:xlink="http://www.w3.org/1999/xlink" x="0px" y="0px"
	 viewBox="0 0 150 150" style="enable-background:new 0 0 150 150;" xml:space="preserve">
<style type="text/css">
	.st0{fill:#381750;}
</style>
<path class="st0" d="M12.6,115.6c11.7,7.5,25.6,11.9,40.6,11.9c49.2,0,76.9-41.5,75.3-78.8c5.2-3.7,9.7-8.4,13.2-13.7
	c-4.8,2.1-9.9,3.5-15.2,4.2c5.5-3.3,9.7-8.5,11.6-14.7c-5.1,3-10.8,5.2-16.8,6.4c-4.8-5.1-11.7-8.4-19.3-8.4
	c-17.1,0-29.7,16-25.8,32.5c-22-1.1-41.5-11.6-54.6-27.7c-6.9,11.9-3.6,27.5,8.2,35.4c-4.3-0.1-8.4-1.3-12-3.3
	C17.5,71.7,26.3,83.2,39,85.7c-3.7,1-7.8,1.2-12,0.5c3.4,10.5,13.1,18.2,24.7,18.4C40.7,113.3,26.6,117.2,12.6,115.6z"/>
</svg>
